<svg width="38" height="38" viewBox="0 0 38 38" fill="none" xmlns="http://www.w3.org/2000/svg">
<path d="M2.33325 4.41689C2.33325 3.2663 3.26599 2.33356 4.41659 2.33356H33.5833C34.7338 2.33356 35.6666 3.2663 35.6666 4.41689V8.58356C35.6666 9.73415 34.7338 10.6669 33.5833 10.6669H4.41659C3.26599 10.6669 2.33325 9.73415 2.33325 8.58356V4.41689Z" stroke="#A0A0A1" stroke-width="3" stroke-linecap="round" stroke-linejoin="round"/>
<path d="M2.33325 21.0836C2.33325 19.933 3.26599 19.0002 4.41659 19.0002H16.9166C18.0672 19.0002 18.9999 19.933 18.9999 21.0836V33.5836C18.9999 34.7342 18.0672 35.6669 16.9166 35.6669H4.41659C3.26599 35.6669 2.33325 34.7342 2.33325 33.5836V21.0836Z" stroke="#A0A0A1" stroke-width="3" stroke-linecap="round" stroke-linejoin="round"/>
<path d="M27.3333 21.0836C27.3333 19.933 28.266 19.0002 29.4166 19.0002H33.5833C34.7338 19.0002 35.6666 19.933 35.6666 21.0836V33.5836C35.6666 34.7342 34.7338 35.6669 33.5833 35.6669H29.4166C28.266 35.6669 27.3333 34.7342 27.3333 33.5836V21.0836Z" stroke="#A0A0A1" stroke-width="3" stroke-linecap="round" stroke-linejoin="round"/>
</svg>
