<svg width="42" height="42" viewBox="0 0 42 42" fill="none" xmlns="http://www.w3.org/2000/svg">
<path d="M18.9167 8.25479V36.0839C18.9167 38.1088 17.2752 39.7502 15.2504 39.7502C13.7009 39.7502 12.3188 38.7762 11.7977 37.3171L7.32599 24.5062M33.5 23.0836C36.9518 23.0836 39.75 20.2854 39.75 16.8336C39.75 13.3818 36.9518 10.5836 33.5 10.5836M7.32599 24.5062C4.34229 23.2379 2.25 20.2801 2.25 16.8336C2.25 12.2312 5.98095 8.50024 10.5833 8.50024H14.4002C22.9432 8.50024 30.2852 5.92921 33.5 2.25024L33.5 31.4169C30.2852 27.7379 22.9432 25.1669 14.4002 25.1669L10.5833 25.1669C9.42746 25.1669 8.3266 24.9316 7.32599 24.5062Z" stroke="#A0A0A1" stroke-width="3" stroke-linecap="round" stroke-linejoin="round"/>
</svg>
