<svg width="42" height="42" viewBox="0 0 42 42" fill="none" xmlns="http://www.w3.org/2000/svg">
<path d="M35.5833 18.9169H6.41667M35.5833 18.9169C37.8845 18.9169 39.75 20.7824 39.75 23.0836V35.5836C39.75 37.8848 37.8845 39.7502 35.5833 39.7502H6.41667C4.11548 39.7502 2.25 37.8848 2.25 35.5836V23.0836C2.25 20.7824 4.11548 18.9169 6.41667 18.9169M35.5833 18.9169V14.7502C35.5833 12.4491 33.7179 10.5836 31.4167 10.5836M6.41667 18.9169V14.7502C6.41667 12.4491 8.28215 10.5836 10.5833 10.5836M10.5833 10.5836V6.41691C10.5833 4.11572 12.4488 2.25024 14.75 2.25024H27.25C29.5512 2.25024 31.4167 4.11572 31.4167 6.41691V10.5836M10.5833 10.5836H31.4167" stroke="#A0A0A1" stroke-width="3" stroke-linecap="round" stroke-linejoin="round"/>
</svg>
